HIERARCHY
ROOT Hips
{
	OFFSET -3.958830 18.904000 13.208200
	CHANNELS 6 Xposition Yposition Zposition Zrotation Yrotation Xrotation 
	JOINT LHipJoint
	{
		OFFSET 0.000000 0.000000 0.000000
		CHANNELS 3 Zrotation Yrotation Xrotation
		JOINT LeftUpLeg
		{
			OFFSET 1.800000 -1.400000 0.085000
			CHANNELS 3 Zrotation Yrotation Xrotation
			JOINT LeftLeg
			{
				OFFSET 2.215000 -6.000000 0.000000
				CHANNELS 3 Zrotation Yrotation Xrotation
				JOINT LeftFoot
				{
					OFFSET 2.500000 -6.900000 0.000000
					CHANNELS 3 Zrotation Yrotation Xrotation
					JOINT LeftToeBase
					{
						OFFSET 0.200000 -0.500000 1.950000
						CHANNELS 3 Zrotation Yrotation Xrotation
						End Site
						{
							OFFSET 0.000000 0.000000 0.000000
						}
					}
				}
			}
		}
	}
	JOINT RHipJoint
	{
		OFFSET 0.000000 0.000000 0.000000
		CHANNELS 3 Zrotation Yrotation Xrotation
		JOINT RightUpLeg
		{
			OFFSET -1.800000 -1.400000 0.085000
			CHANNELS 3 Zrotation Yrotation Xrotation
			JOINT RightLeg
			{
				OFFSET -2.215000 -6.000000 0.000000
				CHANNELS 3 Zrotation Yrotation Xrotation
				JOINT RightFoot
				{
					OFFSET -2.500000 -6.900000 0.000000
					CHANNELS 3 Zrotation Yrotation Xrotation
					JOINT RightToeBase
					{
						OFFSET -0.200000 -0.500000 1.950000
						CHANNELS 3 Zrotation Yrotation Xrotation
						End Site
						{
							OFFSET 0.000000 0.000000 0.000000
						}
					}
				}
			}
		}
	}
	JOINT LowerBack
	{
		OFFSET 0.000000 0.000000 0.000000
		CHANNELS 3 Zrotation Yrotation Xrotation
		JOINT Spine
		{
			OFFSET -0.087000 1.940000 -0.288900
			CHANNELS 3 Zrotation Yrotation Xrotation
			JOINT Spine1
			{
				OFFSET 0.000000 1.950000 0.060000
				CHANNELS 3 Zrotation Yrotation Xrotation
				JOINT Neck
				{
					OFFSET 0.000000 0.000000 0.000000
					CHANNELS 3 Zrotation Yrotation Xrotation
					JOINT Neck1
					{
						OFFSET 0.000000 1.600000 0.340000
						CHANNELS 3 Zrotation Yrotation Xrotation
						JOINT Head
						{
							OFFSET 0.000000 1.667000 -0.240000
							CHANNELS 3 Zrotation Yrotation Xrotation
							End Site
							{
								OFFSET 0.000000 0.000000 0.000000
							}
						}
					}
				}
				JOINT LeftShoulder
				{
					OFFSET 0.000000 0.000000 0.000000
					CHANNELS 3 Zrotation Yrotation Xrotation
					JOINT LeftArm
					{
						OFFSET 2.700000 1.550000 -0.730000
						CHANNELS 3 Zrotation Yrotation Xrotation
						JOINT LeftForeArm
						{
							OFFSET 5.450000 0.000000 0.000000
							CHANNELS 3 Zrotation Yrotation Xrotation
							JOINT LeftHand
							{
								OFFSET 3.450000 0.000000 0.000000
								CHANNELS 3 Zrotation Yrotation Xrotation
								JOINT LeftHandIndex1
								{
									OFFSET 0.750000 0.000000 0.000000
									CHANNELS 3 Zrotation Yrotation Xrotation
									End Site
									{
										OFFSET 0.000000 0.000000 0.000000
									}
								}
							}
						}
					}
				}
				JOINT RightShoulder
				{
					OFFSET 0.000000 0.000000 0.000000
					CHANNELS 3 Zrotation Yrotation Xrotation
					JOINT RightArm
					{
						OFFSET -2.700000 1.550000 -0.730000
						CHANNELS 3 Zrotation Yrotation Xrotation
						JOINT RightForeArm
						{
							OFFSET -5.450000 0.000000 0.000000
							CHANNELS 3 Zrotation Yrotation Xrotation
							JOINT RightHand
							{
								OFFSET -3.450000 0.000000 0.000000
								CHANNELS 3 Zrotation Yrotation Xrotation
								JOINT RightHandIndex1
								{
									OFFSET -0.750000 0.000000 0.000000
									CHANNELS 3 Zrotation Yrotation Xrotation
									End Site
									{
										OFFSET 0.000000 0.000000 0.000000
									}
								}
							}
						}
					}
				}
			}
		}
	}
}
MOTION
Frames: 4
Frame Time: 0.016667
0.918510 17.177510 -1.011210 1.006306 -30.629568 7.169195 -15.484130 12.243908 5.609323 8.366708 -7.535477 -46.830672 -11.096180 4.755065 10.987288 -1.123371 3.761203 3.525706 0.292360 -0.109740 -0.247840 18.168939 -9.823161 2.067221 -0.833322 3.334225 -19.469279 -3.213957 -5.551104 39.357853 -0.470220 -5.431401 3.083688 0.095580 0.842320 -0.017560 -2.972680 -3.710543 -8.073431 5.433536 1.022119 22.715893 5.758004 2.848076 5.870911 -2.851832 -14.306637 -13.481381 -40.663752 18.180996 24.243725 4.869160 2.630150 -11.037200 -11.675816 -4.964363 5.616838 -27.254591 2.567212 -5.306838 -68.080127 -59.138185 32.881200 -3.835574 3.006545 0.855150 0.305730 -0.402100 0.461480 18.457226 16.433099 8.906493 41.357026 -1.550435 -12.608054 29.091039 35.113220 4.664634 1.448018 -1.249176 -0.625340 0.808680 0.261010 -0.217560 
0.958660 17.136110 -1.012500 0.938080 -30.039768 7.927356 -15.465819 12.142602 5.679228 8.340655 -7.790755 -47.743504 -10.428583 4.546279 10.682152 -1.096333 3.627444 3.579103 0.337470 -0.024350 -0.272910 18.202796 -9.875353 1.979277 -1.296072 2.869720 -18.888677 -2.437685 -5.676370 37.136223 -0.405859 -5.209267 3.164365 0.143030 0.872760 0.014030 -3.083316 -3.557652 -8.008450 6.028334 0.710407 20.876980 5.614114 2.359796 6.030387 -3.460058 -14.309560 -13.097003 -39.847408 18.013297 23.449528 5.148420 2.586850 -9.374400 -10.787625 -4.733469 5.453311 -29.511437 0.551506 -5.264525 -57.375785 -57.538878 25.510985 -3.813307 3.077521 0.771320 0.351160 -0.417270 0.512040 18.633809 15.893504 8.521120 41.728052 -0.745912 -11.868065 25.515526 33.706448 3.599210 1.446040 -1.308390 -0.576880 0.775110 0.222280 -0.170930 
0.983390 17.043070 -1.006420 1.632122 -29.523128 8.944829 -15.593141 12.050844 5.902749 9.503344 -8.252161 -49.752178 -10.989860 4.950753 12.087293 -1.161244 4.003235 3.481194 0.332010 -0.054620 -0.298670 18.129905 -9.784590 1.748990 -2.454853 2.047030 -16.851530 -0.985314 -5.592652 31.799416 -0.208102 -4.662835 3.370585 0.211680 1.001950 0.009590 -2.822109 -3.789734 -7.908944 3.857175 1.578492 16.768693 7.947543 2.356250 6.635846 -4.638028 -14.232961 -12.194785 -38.651182 17.833215 22.187877 5.349830 2.513490 -6.286060 -10.618034 -4.528752 4.777511 -33.760591 -3.978524 -4.380061 -37.654073 -52.095320 12.922917 -3.878083 2.989485 0.716910 0.461220 -0.532400 0.541410 20.734930 15.627522 8.234787 41.186462 0.405095 -10.048185 15.353641 28.553677 1.000969 1.376423 -1.295352 -0.664480 0.827050 0.249490 -0.183520 
1.057690 16.961280 -0.974260 1.418669 -29.514419 9.932856 -15.636235 11.657707 6.207990 12.464348 -8.520727 -52.534865 -12.988225 6.950142 18.660658 -1.106773 5.314611 3.032444 0.258820 -0.152110 -0.320960 18.176084 -9.710462 1.579511 -4.243032 1.657087 -14.995885 1.788774 -6.041841 27.164122 -0.027117 -4.412503 3.482426 0.256140 1.148750 -0.038430 -2.964784 -3.461684 -7.831236 4.603290 1.975511 13.386838 7.454037 2.529173 6.924172 -5.489331 -13.860587 -11.013591 -35.693017 17.435192 21.529147 4.672320 3.073720 -2.671140 -10.786665 -4.291511 3.774412 -38.707338 -9.374865 -2.519593 -18.902929 -43.250841 3.377922 -4.040410 2.758147 0.627170 0.596660 -0.692420 0.517400 22.172524 14.805670 7.621021 41.977026 2.036222 -8.009047 7.852781 22.801585 -0.592977 1.364658 -1.269551 -0.789140 0.902750 0.311530 -0.217280 
